<?xml version="1.0" encoding="iso-8859-1"?>
<!-- Generator: Adobe Illustrator 19.0.0, SVG Export Plug-In . SVG Version: 6.00 Build 0)  -->
<svg version="1.1" id="Capa_1" xmlns="http://www.w3.org/2000/svg" xmlns:xlink="http://www.w3.org/1999/xlink" x="0px" y="0px"
	 viewBox="0 0 512 512" style="enable-background:new 0 0 512 512;" xml:space="preserve">
<polygon style="fill:#9ED0FF;" points="512,330.849 256,497.05 0,330.849 99.401,278.349 412.599,278.349 "/>
<polygon style="fill:#73BCFF;" points="512,330.849 256,497.05 256,278.349 412.599,278.349 "/>
<polygon style="fill:#B34F03;" points="512,240.849 256,407.05 0,240.849 99.401,188.349 412.599,188.349 "/>
<polygon style="fill:#913F02;" points="512,240.849 256,407.05 256,188.349 412.599,188.349 "/>
<path style="fill:#A8D32A;" d="M256,14.95L0,150.851L256,317.05l256-166.199L256,14.95z"/>
<polygon style="fill:#93BF00;" points="512,150.851 256,317.05 256,14.95 "/>
<g>
	<path style="fill:#81A713;" d="M256,49.15L59.801,153.249L256,281.05l196.199-127.8L256,49.15z"/>
	<polygon style="fill:#81A713;" points="452.199,153.249 256,281.05 256,49.15 	"/>
</g>
<path style="fill:#A8D32A;" d="M412.301,123.55L396.1,98.351l-66.599,42.9l-46.201-28.5l50.101-30.901L318.1,56.35L256,95.049
	L193.001,56.95L177.4,82.45l48.3,30l-45.3,27.599L115.901,98.35l-16.202,25.2l52.202,33.9l-52.5,31.8L115,215.05l65.099-39.598
	l48.301,31.199l-51.601,33.6L193,265.452l63-40.802l62.999,40.801L335.2,240.25l-51.601-33.6l46.201-29.7l64.199,39.6l15.901-25.5
	l-52.2-32.1L412.301,123.55z M256,188.95l-47.401-30.899l47.401-27.9l45.601,29.099L256,188.95z"/>
<polygon style="fill:#93BF00;" points="357.7,158.95 409.9,191.05 393.999,216.551 329.801,176.951 283.599,206.65 335.2,240.25 
	318.999,265.451 256,224.65 256,188.95 301.601,159.25 256,130.151 256,95.049 318.1,56.35 333.401,81.849 283.299,112.75 
	329.5,141.251 396.099,98.351 412.301,123.55 "/>
<g>
</g>
<g>
</g>
<g>
</g>
<g>
</g>
<g>
</g>
<g>
</g>
<g>
</g>
<g>
</g>
<g>
</g>
<g>
</g>
<g>
</g>
<g>
</g>
<g>
</g>
<g>
</g>
<g>
</g>
</svg>
